{
    "asset" : {
        "generator" : "Khronos glTF Blender I/O v0.9.36",
        "version" : "2.0"
    },
    "scene" : 0,
    "scenes" : [
        {
            "extras" : {
                "glTF2ExportSettings" : {
                    "export_apply" : 0,
                    "export_extras" : 1,
                    "export_format" : "GLTF_EMBEDDED",
                    "export_yup" : 1
                }
            },
            "name" : "Scene",
            "nodes" : [
                0,
                1
            ]
        }
    ],
    "nodes" : [
        {
            "extras" : {
                "prop" : "sometestprop"
            },
            "mesh" : 0,
            "name" : "Cube",
            "scale" : [
                5,
                1.5,
                5
            ],
            "translation" : [
                0,
                1.5,
                0
            ]
        },
        {
            "extras" : {
                "prop" : "light"
            },
            "name" : "light",
            "translation" : [
                6.57277774810791,
                1.8267884254455566,
                6.32734489440918
            ]
        }
    ],
    "materials" : [
        {
            "doubleSided" : true,
            "name" : "Material.002",
            "pbrMetallicRoughness" : {}
        }
    ],
    "meshes" : [
        {
            "name" : "Cube.035",
            "primitives" : [
                {
                    "attributes" : {
                        "POSITION" : 0,
                        "NORMAL" : 1
                    },
                    "indices" : 2,
                    "material" : 0
                }
            ]
        }
    ],
    "accessors" : [
        {
            "bufferView" : 0,
            "componentType" : 5126,
            "count" : 493,
            "max" : [
                1.1933674812316895,
                1,
                1.1736793518066406
            ],
            "min" : [
                -1,
                -1,
                -1
            ],
            "type" : "VEC3"
        },
        {
            "bufferView" : 1,
            "componentType" : 5126,
            "count" : 493,
            "type" : "VEC3"
        },
        {
            "bufferView" : 2,
            "componentType" : 5123,
            "count" : 1722,
            "type" : "SCALAR"
        }
    ],
    "bufferViews" : [
        {
            "buffer" : 0,
            "byteLength" : 5916,
            "byteOffset" : 0
        },
        {
            "buffer" : 0,
            "byteLength" : 5916,
            "byteOffset" : 5916
        },
        {
            "buffer" : 0,
            "byteLength" : 3444,
            "byteOffset" : 11832
        }
    ],
    "buffers" : [
        {
            "byteLength" : 15276,
            "uri" : "data:application/octet-stream;base64,"
        }
    ]
}
